<svg xmlns="http://www.w3.org/2000/svg" xmlns:xlink="http://www.w3.org/1999/xlink" width="500" zoomAndPan="magnify" viewBox="0 0 375 374.999991" height="500" preserveAspectRatio="xMidYMid meet" version="1.0"><defs><g/><clipPath id="id1"><path d="M 84.222656 97 L 192 97 L 192 221.234375 L 84.222656 221.234375 Z M 84.222656 97 " clip-rule="nonzero"/></clipPath><clipPath id="id2"><path d="M 107 32.234375 L 308.472656 32.234375 L 308.472656 218 L 107 218 Z M 107 32.234375 " clip-rule="nonzero"/></clipPath></defs><rect x="-37.5" width="450" fill="#ffffff" y="-37.499999" height="449.999989" fill-opacity="1"/><rect x="-37.5" width="450" fill="#ffffff" y="-37.499999" height="449.999989" fill-opacity="1"/><rect x="-37.5" width="450" fill="#ffffff" y="-37.499999" height="449.999989" fill-opacity="1"/><rect x="-37.5" width="450" fill="#ffffff" y="-37.499999" height="449.999989" fill-opacity="1"/><path fill="#f46a4e" d="M 191.8125 101.558594 L 191.523438 101.839844 L 191.757812 102.410156 C 191.773438 102.121094 191.792969 101.835938 191.8125 101.558594 " fill-opacity="1" fill-rule="nonzero"/><path fill="#f46a4e" d="M 198.632812 99.425781 L 198.59375 99.34375 L 198.53125 99.488281 L 198.492188 100.101562 L 198.632812 99.425781 " fill-opacity="1" fill-rule="nonzero"/><path fill="#f46a4e" d="M 195.140625 100.722656 C 195.152344 101.125 195.164062 101.535156 195.175781 101.957031 L 195.265625 101.648438 L 195.289062 100.503906 L 195.140625 100.722656 " fill-opacity="1" fill-rule="nonzero"/><path fill="#f46a4e" d="M 202.199219 95.414062 C 202.277344 95.429688 202.359375 95.441406 202.441406 95.460938 L 202.226562 94.300781 L 202.199219 95.414062 " fill-opacity="1" fill-rule="nonzero"/><path fill="#f46a4e" d="M 186.296875 99.488281 L 186.238281 99.34375 L 186.191406 99.425781 L 186.335938 100.101562 L 186.296875 99.488281 " fill-opacity="1" fill-rule="nonzero"/><path fill="#f46a4e" d="M 178.101562 96.058594 L 177.902344 96.789062 C 177.976562 96.761719 178.050781 96.734375 178.125 96.707031 L 178.101562 96.058594 " fill-opacity="1" fill-rule="nonzero"/><path fill="#f46a4e" d="M 182.601562 94.300781 L 182.386719 95.460938 C 182.46875 95.441406 182.550781 95.429688 182.632812 95.414062 L 182.601562 94.300781 " fill-opacity="1" fill-rule="nonzero"/><path fill="#f46a4e" d="M 184.707031 99.824219 L 184.625 99.628906 L 184.714844 100.089844 Z M 184.707031 99.824219 " fill-opacity="1" fill-rule="nonzero"/><path fill="#f46a4e" d="M 206.726562 96.058594 L 206.703125 96.707031 C 206.777344 96.734375 206.851562 96.761719 206.925781 96.789062 L 206.726562 96.058594 " fill-opacity="1" fill-rule="nonzero"/><path fill="#f46a4e" d="M 191.613281 100.816406 L 191.101562 99.699219 L 191.082031 99.679688 L 190.695312 99.84375 L 191.308594 101.328125 L 191.613281 100.816406 " fill-opacity="1" fill-rule="nonzero"/><path fill="#f46a4e" d="M 183.070312 80.289062 C 183.214844 80.382812 183.359375 80.476562 183.5 80.570312 L 184.421875 80.222656 L 183.070312 80.289062 " fill-opacity="1" fill-rule="nonzero"/><path fill="#f46a4e" d="M 196.167969 74.46875 L 196.851562 74.570312 C 196.933594 74.484375 197.019531 74.398438 197.101562 74.3125 L 196.167969 74.46875 " fill-opacity="1" fill-rule="nonzero"/><path fill="#f46a4e" d="M 198.027344 73.363281 C 198.355469 73.046875 198.714844 72.738281 199.066406 72.433594 L 195.640625 72.984375 L 198.027344 73.363281 " fill-opacity="1" fill-rule="nonzero"/><path fill="#f46a4e" d="M 180.039062 78.605469 L 182.710938 78.71875 L 184.703125 77.929688 L 179.292969 78.25 C 179.542969 78.363281 179.792969 78.484375 180.039062 78.605469 " fill-opacity="1" fill-rule="nonzero"/><path fill="#f46a4e" d="M 200.667969 71.140625 C 201.003906 70.886719 201.347656 70.636719 201.703125 70.394531 L 198.582031 70.71875 L 200.667969 71.140625 " fill-opacity="1" fill-rule="nonzero"/><path fill="#f46a4e" d="M 172.851562 94.59375 L 170.417969 101.070312 C 171.148438 100.484375 171.894531 99.953125 172.644531 99.464844 L 172.851562 94.59375 " fill-opacity="1" fill-rule="nonzero"/><path fill="#f46a4e" d="M 176.476562 77.089844 L 179.777344 75.621094 L 173.972656 76.292969 C 174.832031 76.53125 175.667969 76.800781 176.476562 77.089844 " fill-opacity="1" fill-rule="nonzero"/><path fill="#f46a4e" d="M 211.976562 94.59375 L 212.183594 99.464844 C 212.933594 99.953125 213.679688 100.484375 214.410156 101.070312 L 211.976562 94.59375 " fill-opacity="1" fill-rule="nonzero"/><path fill="#f46a4e" d="M 207.5625 77.386719 C 207.851562 77.273438 208.144531 77.164062 208.441406 77.058594 L 204.824219 76.304688 L 207.5625 77.386719 " fill-opacity="1" fill-rule="nonzero"/><path fill="#f46a4e" d="M 211.742188 88.132812 C 212.71875 88.214844 213.714844 88.339844 214.71875 88.511719 L 208.996094 83.71875 L 211.742188 88.132812 " fill-opacity="1" fill-rule="nonzero"/><path fill="#f46a4e" d="M 210.472656 76.402344 C 211.519531 76.101562 212.605469 75.835938 213.734375 75.628906 L 206.511719 73.769531 L 210.472656 76.402344 " fill-opacity="1" fill-rule="nonzero"/><path fill="#f46a4e" d="M 219.21875 105.964844 L 217.039062 98.984375 L 217.039062 103.464844 C 217.785156 104.230469 218.511719 105.0625 219.21875 105.964844 " fill-opacity="1" fill-rule="nonzero"/><path fill="#f46a4e" d="M 205.195312 77.464844 L 206.035156 78.023438 C 206.179688 77.960938 206.320312 77.894531 206.464844 77.835938 L 205.195312 77.464844 " fill-opacity="1" fill-rule="nonzero"/><path fill="#f46a4e" d="M 175.003906 88.03125 C 175.359375 88.023438 175.710938 88.019531 176.0625 88.019531 L 177.234375 86.191406 L 175.003906 88.03125 " fill-opacity="1" fill-rule="nonzero"/><path fill="#f46a4e" d="M 184.570312 94.300781 L 184.4375 95.097656 C 184.488281 95.089844 184.539062 95.085938 184.589844 95.074219 L 184.570312 94.300781 " fill-opacity="1" fill-rule="nonzero"/><path fill="#f46a4e" d="M 200.390625 95.097656 L 200.257812 94.300781 L 200.238281 95.074219 C 200.289062 95.085938 200.339844 95.089844 200.390625 95.097656 " fill-opacity="1" fill-rule="nonzero"/><path fill="#f46a4e" d="M 174.378906 98.425781 C 174.644531 98.277344 174.910156 98.136719 175.179688 98 L 175.289062 96.058594 L 174.378906 98.425781 " fill-opacity="1" fill-rule="nonzero"/><path fill="#f46a4e" d="M 215.5625 85.050781 L 217.910156 89.214844 C 218.960938 89.5 220.019531 89.839844 221.089844 90.246094 L 215.5625 85.050781 " fill-opacity="1" fill-rule="nonzero"/><path fill="#f46a4e" d="M 162.792969 90.621094 L 169.027344 83.574219 L 161.160156 89.878906 L 165.761719 81.726562 L 157.628906 88.894531 L 161.652344 81.761719 L 151.246094 90.664062 L 158.070312 82.007812 L 150.128906 87.683594 L 154.0625 81.046875 L 153.367188 81.089844 L 147.191406 86.023438 L 150.890625 81.242188 L 150.523438 81.261719 L 139.847656 87.589844 L 145.628906 81.566406 L 143.53125 81.691406 L 136.609375 83.410156 C 137.527344 82.894531 138.425781 82.414062 139.320312 81.953125 L 101.714844 84.273438 C 96.691406 92.160156 92.632812 100.734375 89.707031 109.800781 L 139.625 111.878906 C 147.121094 100.113281 155.164062 93.746094 162.792969 90.621094 " fill-opacity="1" fill-rule="nonzero"/><path fill="#f46a4e" d="M 184.238281 88.6875 L 184.464844 88.257812 L 184.019531 88.792969 Z M 184.238281 88.6875 " fill-opacity="1" fill-rule="nonzero"/><path fill="#f46a4e" d="M 209.539062 96.058594 L 209.648438 98 C 209.917969 98.136719 210.183594 98.277344 210.449219 98.425781 L 209.539062 96.058594 " fill-opacity="1" fill-rule="nonzero"/><path fill="#f46a4e" d="M 200.203125 99.628906 L 200.121094 99.824219 L 200.113281 100.089844 Z M 200.203125 99.628906 " fill-opacity="1" fill-rule="nonzero"/><path fill="#f46a4e" d="M 175.785156 83.792969 L 175.730469 83.804688 L 170.109375 88.511719 C 171.113281 88.339844 172.109375 88.214844 173.085938 88.132812 L 175.785156 83.792969 " fill-opacity="1" fill-rule="nonzero"/><path fill="#f46a4e" d="M 166.917969 89.214844 L 169.265625 85.050781 L 163.738281 90.246094 C 164.808594 89.839844 165.867188 89.5 166.917969 89.214844 " fill-opacity="1" fill-rule="nonzero"/><path fill="#f46a4e" d="M 199.847656 81.21875 L 200.113281 81.378906 C 200.152344 81.351562 200.1875 81.332031 200.222656 81.304688 L 199.847656 81.21875 " fill-opacity="1" fill-rule="nonzero"/><path fill="#f46a4e" d="M 201.992188 80.148438 C 202.296875 79.964844 202.605469 79.78125 202.921875 79.601562 L 199.953125 78.914062 L 201.992188 80.148438 " fill-opacity="1" fill-rule="nonzero"/><path fill="#f46a4e" d="M 167.789062 103.464844 L 167.789062 98.984375 L 165.609375 105.964844 C 166.316406 105.0625 167.042969 104.230469 167.789062 103.464844 " fill-opacity="1" fill-rule="nonzero"/><path fill="#f46a4e" d="M 179.367188 88.183594 L 179.683594 87.574219 L 179.105469 88.160156 C 179.195312 88.167969 179.28125 88.175781 179.367188 88.183594 " fill-opacity="1" fill-rule="nonzero"/><path fill="#f46a4e" d="M 208.765625 88.019531 C 209.117188 88.019531 209.46875 88.023438 209.824219 88.03125 L 207.59375 86.191406 L 208.765625 88.019531 " fill-opacity="1" fill-rule="nonzero"/><path fill="#f46a4e" d="M 200.722656 88.941406 C 200.78125 88.929688 200.839844 88.914062 200.898438 88.902344 L 200.363281 88.257812 L 200.722656 88.941406 " fill-opacity="1" fill-rule="nonzero"/><path fill="#f46a4e" d="M 198.757812 89.433594 C 198.773438 89.429688 198.789062 89.421875 198.804688 89.417969 L 198.648438 89.226562 L 198.757812 89.433594 " fill-opacity="1" fill-rule="nonzero"/><path fill="#f46a4e" d="M 205.460938 88.183594 C 205.546875 88.175781 205.632812 88.167969 205.722656 88.160156 L 205.144531 87.574219 L 205.460938 88.183594 " fill-opacity="1" fill-rule="nonzero"/><path fill="#f46a4e" d="M 226.242188 159.917969 C 226.320312 160.175781 226.378906 160.4375 226.425781 160.6875 L 228.058594 161.488281 L 226.242188 159.917969 " fill-opacity="1" fill-rule="nonzero"/><path fill="#f46a4e" d="M 233.058594 169.722656 L 231.984375 171.265625 C 232.253906 171.574219 232.503906 171.898438 232.738281 172.230469 L 233.058594 169.722656 " fill-opacity="1" fill-rule="nonzero"/><path fill="#f46a4e" d="M 223.398438 169.6875 L 223.285156 169.695312 L 223.167969 169.734375 Z M 223.398438 169.6875 " fill-opacity="1" fill-rule="nonzero"/><path fill="#f46a4e" d="M 231.433594 170.675781 L 231.546875 169.707031 L 231.109375 170.359375 C 231.21875 170.464844 231.328125 170.570312 231.433594 170.675781 " fill-opacity="1" fill-rule="nonzero"/><path fill="#f46a4e" d="M 234.609375 167.558594 L 234.625 167.902344 C 234.699219 167.9375 234.773438 167.972656 234.847656 168.007812 L 234.609375 167.558594 " fill-opacity="1" fill-rule="nonzero"/><path fill="#f46a4e" d="M 232.449219 167.039062 C 232.625 167.101562 232.800781 167.167969 232.976562 167.234375 L 232.355469 166.226562 L 232.449219 167.039062 " fill-opacity="1" fill-rule="nonzero"/><path fill="#f46a4e" d="M 225.855469 169.59375 C 225.871094 169.621094 225.890625 169.648438 225.910156 169.675781 L 226.347656 169.421875 L 225.855469 169.59375 " fill-opacity="1" fill-rule="nonzero"/><path fill="#f46a4e" d="M 226.976562 171.058594 L 226.6875 171.160156 C 226.695312 171.1875 226.707031 171.210938 226.71875 171.238281 L 226.976562 171.058594 " fill-opacity="1" fill-rule="nonzero"/><path fill="#f46a4e" d="M 226.9375 175.363281 C 226.835938 175.710938 226.699219 176.066406 226.527344 176.425781 L 228.894531 174.628906 L 226.9375 175.363281 " fill-opacity="1" fill-rule="nonzero"/><path fill="#f46a4e" d="M 235.378906 168.257812 C 235.519531 168.328125 235.65625 168.402344 235.796875 168.472656 L 235 167.257812 L 235.378906 168.257812 " fill-opacity="1" fill-rule="nonzero"/><path fill="#f46a4e" d="M 227.847656 171.902344 L 227.035156 172.253906 C 227.058594 172.355469 227.078125 172.460938 227.097656 172.5625 L 227.847656 171.902344 " fill-opacity="1" fill-rule="nonzero"/><path fill="#f46a4e" d="M 227.179688 173.253906 C 227.199219 173.558594 227.199219 173.867188 227.171875 174.183594 L 229.238281 172.394531 L 227.179688 173.253906 " fill-opacity="1" fill-rule="nonzero"/><path fill="#f46a4e" d="M 220.269531 163.535156 L 219.699219 163.660156 C 219.730469 163.683594 219.761719 163.707031 219.792969 163.726562 L 220.269531 163.535156 " fill-opacity="1" fill-rule="nonzero"/><path fill="#f46a4e" d="M 218.109375 162.472656 L 217.730469 162.535156 C 217.761719 162.550781 217.796875 162.566406 217.835938 162.585938 L 218.109375 162.472656 " fill-opacity="1" fill-rule="nonzero"/><path fill="#f46a4e" d="M 218.570312 165.015625 L 218.398438 165.117188 L 218.511719 165.070312 Z M 218.570312 165.015625 " fill-opacity="1" fill-rule="nonzero"/><path fill="#f46a4e" d="M 219.195312 165.449219 L 219.144531 165.449219 L 218.898438 165.601562 L 219.152344 165.492188 L 219.195312 165.449219 " fill-opacity="1" fill-rule="nonzero"/><path fill="#f46a4e" d="M 215.921875 161.742188 C 216.070312 161.800781 216.214844 161.855469 216.359375 161.914062 L 217.238281 161.628906 L 215.921875 161.742188 " fill-opacity="1" fill-rule="nonzero"/><path fill="#f46a4e" d="M 236.628906 167.351562 L 236.707031 168.972656 C 237.167969 169.238281 237.621094 169.53125 238.066406 169.839844 L 236.628906 167.351562 " fill-opacity="1" fill-rule="nonzero"/><path fill="#f46a4e" d="M 225.871094 158.882812 L 227.539062 159.632812 L 225.4375 157.992188 C 225.601562 158.292969 225.746094 158.585938 225.871094 158.882812 " fill-opacity="1" fill-rule="nonzero"/><path fill="#f46a4e" d="M 217.617188 158 L 220.171875 158.023438 L 216.191406 157.210938 C 216.699219 157.464844 217.167969 157.730469 217.617188 158 " fill-opacity="1" fill-rule="nonzero"/><path fill="#f46a4e" d="M 226.523438 161.382812 C 226.527344 161.441406 226.527344 161.5 226.53125 161.558594 L 226.972656 161.777344 L 226.523438 161.382812 " fill-opacity="1" fill-rule="nonzero"/><path fill="#f46a4e" d="M 220.011719 159.671875 L 222.738281 159.773438 L 222.71875 159.757812 L 218.914062 158.839844 C 219.300781 159.113281 219.671875 159.394531 220.011719 159.671875 " fill-opacity="1" fill-rule="nonzero"/><path fill="#f46a4e" d="M 233.117188 164.363281 L 233.289062 164.582031 C 233.351562 164.59375 233.414062 164.605469 233.476562 164.617188 L 233.117188 164.363281 " fill-opacity="1" fill-rule="nonzero"/><path fill="#f46a4e" d="M 233.605469 163.960938 L 234.179688 164.738281 C 234.417969 164.785156 234.664062 164.84375 234.90625 164.898438 L 233.605469 163.960938 " fill-opacity="1" fill-rule="nonzero"/><path fill="#f46a4e" d="M 217.121094 160.65625 L 213.542969 160.988281 C 214.027344 161.109375 214.488281 161.246094 214.933594 161.394531 L 217.121094 160.65625 " fill-opacity="1" fill-rule="nonzero"/><path fill="#f46a4e" d="M 220.644531 160.230469 C 220.761719 160.335938 220.867188 160.441406 220.972656 160.546875 L 222.144531 160.597656 L 220.644531 160.230469 " fill-opacity="1" fill-rule="nonzero"/><path fill="#f46a4e" d="M 235.503906 164.472656 L 235.964844 165.167969 C 236.179688 165.226562 236.394531 165.289062 236.609375 165.355469 L 235.503906 164.472656 " fill-opacity="1" fill-rule="nonzero"/><path fill="#f46a4e" d="M 223 169.183594 L 223.023438 169.15625 L 222.941406 169.160156 L 222.664062 169.25 L 223 169.183594 " fill-opacity="1" fill-rule="nonzero"/><path fill="#f46a4e" d="M 152.417969 110.6875 L 152.605469 101.839844 L 149.042969 110.6875 L 149.980469 104.25 L 145.453125 112.121094 L 154.886719 112.511719 L 156.542969 101.839844 L 152.417969 110.6875 " fill-opacity="1" fill-rule="nonzero"/><path fill="#f46a4e" d="M 209.917969 160.347656 C 210.53125 160.410156 211.121094 160.492188 211.6875 160.589844 L 213.640625 159.859375 L 209.917969 160.347656 " fill-opacity="1" fill-rule="nonzero"/><g clip-path="url(#id1)"><path fill="#f46a4e" d="M 124.773438 216.519531 C 130.222656 208.484375 139.199219 203.238281 149.347656 203.238281 C 152 203.238281 154.566406 203.605469 157.011719 204.273438 C 159.183594 202.664062 161.507812 201.269531 163.96875 200.125 C 164.925781 199.078125 165.90625 197.921875 166.890625 196.617188 C 168.585938 194.378906 170.28125 191.761719 171.902344 188.828125 C 173.53125 185.898438 175.066406 182.648438 176.503906 179.183594 C 179.386719 172.253906 181.832031 164.457031 183.800781 156.492188 C 185.78125 148.527344 187.3125 140.394531 188.484375 132.714844 C 189.660156 125.035156 190.46875 117.804688 191.039062 111.589844 C 191.304688 108.679688 191.511719 106 191.675781 103.589844 L 190.890625 102.453125 L 190.300781 103.027344 L 190.753906 102.261719 L 189.535156 100.503906 L 189.5625 101.648438 L 191.324219 107.59375 L 189.609375 103.882812 L 189.632812 104.980469 L 189.113281 102.808594 L 187.679688 99.710938 L 188.476562 104.691406 L 187.140625 101.496094 L 186.996094 103.214844 L 187.859375 107.289062 L 186.851562 104.910156 L 186.726562 106.445312 L 186.59375 104.292969 L 185.027344 100.585938 L 184.910156 101.121094 L 186.710938 110.414062 L 183.175781 102.75 L 183.136719 103.007812 L 184.371094 108.398438 L 181.738281 102.285156 L 182.929688 113.292969 L 180.492188 105.816406 L 180.164062 107.613281 L 179.957031 104.175781 L 179.613281 103.113281 L 179.644531 109.476562 L 177.335938 102.726562 L 177.480469 114.402344 L 174.917969 107.828125 L 174.84375 108.101562 L 175.507812 117.722656 L 173.75 106.933594 L 173.675781 115.121094 L 170.914062 108.039062 L 171.242188 116.835938 L 168.824219 110.640625 L 169.078125 121.761719 L 167.140625 113.023438 L 166.632812 120.933594 L 164.164062 114.1875 L 164.078125 121.929688 L 162.890625 116.785156 L 161.292969 127.351562 L 160.40625 120.050781 L 157.003906 127.242188 C 158.578125 118.203125 161.441406 111.648438 164.914062 106.886719 L 166.851562 97.8125 L 163.101562 107.175781 L 163.101562 97.8125 L 159.542969 108.054688 L 159.542969 99.863281 L 154.933594 112.515625 L 160.085938 112.726562 L 144.554688 113.6875 L 143.417969 115.660156 L 143.914062 113.726562 L 87.613281 117.195312 C 85.4375 125.886719 84.292969 134.972656 84.292969 144.328125 C 84.292969 144.871094 84.292969 145.414062 84.308594 145.957031 L 160.085938 149.109375 L 84.699219 153.757812 C 85.558594 164.261719 87.882812 174.339844 91.457031 183.816406 L 144.835938 186.050781 L 93.644531 189.203125 C 98.140625 199.492188 104.144531 208.984375 111.382812 217.386719 C 112.5 218.6875 113.644531 219.96875 114.824219 221.222656 L 124.332031 220.910156 C 123.871094 219.570312 123.9375 217.753906 124.773438 216.519531 " fill-opacity="1" fill-rule="nonzero"/></g><path fill="#f46a4e" d="M 144.335938 112.074219 L 145.667969 106.882812 L 140.347656 111.910156 Z M 144.335938 112.074219 " fill-opacity="1" fill-rule="nonzero"/><g clip-path="url(#id2)"><path fill="#f46a4e" d="M 308.402344 144.898438 L 263.199219 142.109375 L 308.328125 140.238281 C 307.832031 126.25 304.769531 112.925781 299.59375 100.6875 L 246.0625 97.398438 L 297.136719 95.273438 C 278.945312 57.9375 240.648438 32.226562 196.347656 32.226562 C 160.359375 32.226562 128.320312 49.203125 107.808594 75.59375 L 150.242188 77.363281 C 159.273438 74.496094 166.855469 74.515625 173.101562 76.066406 L 180.335938 74.542969 L 172.15625 74.847656 L 179.097656 71.757812 L 170.332031 72.492188 L 176.40625 69.789062 L 165.3125 70.558594 L 173.949219 68.21875 L 166.027344 68.074219 L 172.652344 65.292969 L 164.914062 65.570312 L 169.996094 64.140625 L 159.371094 63.035156 L 166.625 61.8125 L 159.285156 58.742188 C 180.023438 61.375 188.273438 71.261719 191.425781 80.160156 C 190.78125 73.40625 192.765625 62.527344 209.757812 56.429688 L 205.316406 59.558594 L 210.332031 59.304688 L 203.40625 61.617188 L 207.007812 61.816406 L 201.808594 62.773438 L 206.636719 63.648438 L 201.375 64.917969 L 207.480469 65.199219 L 199.96875 66.328125 L 204.421875 67.230469 L 198.464844 68.039062 L 203.550781 69.074219 L 198.050781 70.078125 L 202.253906 70.035156 C 208.042969 66.265625 216.328125 63.753906 228.226562 64.257812 L 220.476562 66.050781 L 227.417969 68.472656 L 216.757812 67.785156 L 221.53125 70.042969 L 213.949219 68.476562 L 220.011719 72.324219 L 212.179688 71.140625 L 220.300781 74.894531 L 209.496094 72.277344 L 214.367188 75.519531 C 223.171875 74.046875 234.351562 75.609375 248.21875 83.410156 L 238.707031 81.050781 L 244.980469 87.589844 L 233.660156 80.878906 L 237.636719 86.023438 L 230.1875 80.070312 L 234.699219 87.683594 L 226.761719 82.007812 L 233.582031 90.664062 L 223.175781 81.761719 L 227.199219 88.894531 L 219.066406 81.726562 L 223.667969 89.878906 L 215.800781 83.574219 L 222.035156 90.621094 C 230.03125 93.898438 238.484375 100.730469 246.285156 113.613281 L 239.160156 106.882812 L 241.410156 115.660156 L 234.847656 104.25 L 235.785156 110.6875 L 232.222656 101.839844 L 232.414062 110.6875 L 228.285156 101.839844 L 229.972656 112.734375 L 225.285156 99.863281 L 225.285156 108.054688 L 221.726562 97.8125 L 221.726562 107.175781 L 217.976562 97.8125 L 219.914062 106.886719 C 223.386719 111.648438 226.25 118.203125 227.824219 127.242188 L 224.421875 120.050781 L 223.535156 127.351562 L 221.941406 116.785156 L 220.75 121.929688 L 220.664062 114.1875 L 218.195312 120.933594 L 217.6875 113.023438 L 215.746094 121.761719 L 216.003906 110.640625 L 213.585938 116.835938 L 213.914062 108.039062 L 211.152344 115.121094 L 211.078125 106.933594 L 209.320312 117.722656 L 209.984375 108.101562 L 209.910156 107.828125 L 207.347656 114.402344 L 207.492188 102.726562 L 205.183594 109.476562 L 205.214844 103.113281 L 204.871094 104.175781 L 204.664062 107.613281 L 204.335938 105.816406 L 201.898438 113.292969 L 203.085938 102.285156 L 200.460938 108.398438 L 201.691406 103.007812 L 201.652344 102.75 L 198.117188 110.414062 L 199.917969 101.121094 L 199.800781 100.585938 L 198.234375 104.292969 L 198.101562 106.445312 L 197.972656 104.910156 L 196.96875 107.289062 L 197.832031 103.214844 L 197.6875 101.496094 L 196.351562 104.691406 L 197.148438 99.710938 L 195.714844 102.808594 L 195.242188 104.792969 C 195.285156 106.9375 195.308594 109.273438 195.3125 111.78125 C 195.3125 124.402344 194.707031 141.285156 192.113281 158.152344 C 190.828125 166.585938 189.027344 175.003906 186.59375 182.824219 C 185.707031 185.667969 184.738281 188.425781 183.683594 191.070312 C 183.6875 191.066406 183.695312 191.058594 183.699219 191.050781 C 184.757812 189.644531 185.917969 188.195312 187.203125 186.777344 C 188.46875 185.347656 189.855469 183.945312 191.3125 182.585938 C 192.03125 181.894531 192.808594 181.261719 193.558594 180.589844 C 194.328125 179.945312 195.121094 179.316406 195.90625 178.695312 C 197.511719 177.480469 199.136719 176.308594 200.800781 175.257812 C 202.449219 174.179688 204.136719 173.234375 205.765625 172.339844 C 207.417969 171.480469 209.023438 170.675781 210.585938 170 C 212.136719 169.300781 213.628906 168.710938 215.011719 168.195312 C 216.179688 167.765625 217.253906 167.40625 218.253906 167.089844 L 218.578125 166.878906 L 219.484375 165.945312 L 217.558594 166.996094 L 218.539062 166.074219 L 217.742188 166.308594 L 216.234375 167.234375 L 216.960938 166.546875 L 216.25 166.757812 L 217.148438 166.367188 L 218.28125 165.289062 L 218.011719 165.34375 L 214.511719 167.402344 L 216.761719 165.089844 L 216.636719 165.121094 L 214.671875 166.371094 L 216.519531 164.582031 L 212.089844 166.738281 L 214.59375 164.785156 L 213.707031 164.980469 L 215.144531 164.359375 L 215.5 164.082031 L 212.734375 165.128906 L 214.964844 163.335938 L 209.917969 165.285156 L 211.988281 163.441406 L 211.847656 163.464844 L 207.859375 165.238281 L 212.019531 162.945312 L 208.425781 164.265625 L 210.65625 162.277344 L 206.925781 163.8125 L 208.875 162.074219 L 204.105469 163.96875 L 207.316406 161.957031 L 203.710938 163.101562 L 205.886719 161.257812 L 202.484375 162.496094 L 204.359375 161.300781 L 199.257812 162.550781 L 202.167969 161.089844 L 197.976562 161.242188 C 202.40625 160.238281 206.148438 160.023438 209.304688 160.289062 L 213.859375 159.386719 L 208.617188 159.792969 L 212.699219 158.261719 L 207.128906 158.867188 L 210.703125 157.527344 L 203.636719 158.226562 L 208.910156 156.949219 L 203.773438 157.160156 L 207.691406 155.769531 L 202.730469 156.148438 L 205.824219 155.378906 L 198.816406 155.273438 L 203.34375 154.515625 L 198.203125 153.476562 C 206.226562 153.710938 211.816406 155.128906 215.722656 156.988281 L 220.742188 157.710938 L 215.558594 156.382812 L 220.535156 156.425781 L 214.890625 155.160156 L 219.25 155.199219 L 212.140625 153.535156 L 218.03125 154.167969 L 213.097656 152.714844 L 217.8125 152.820312 L 212.914062 151.558594 L 216.386719 151.914062 L 209.953125 149.613281 L 214.746094 150.425781 L 210.773438 147.957031 C 219.257812 151.136719 223.417969 154.574219 225.265625 157.695312 L 228.183594 159.625 L 225.519531 157.222656 L 229.015625 158.800781 L 225.980469 156.289062 L 229.039062 157.667969 L 225.269531 154.46875 L 228.964844 156.675781 L 226.574219 154.273438 L 229.835938 155.808594 L 227.320312 153.53125 L 229.519531 154.824219 L 226.710938 151.457031 L 229.492188 153.429688 L 228.554688 150.726562 C 233.84375 157.394531 232.0625 161.492188 229.144531 163.890625 C 231.878906 162.585938 237.234375 161.367188 245.195312 165.488281 L 242.453125 164.667969 L 244.117188 166.128906 L 240.96875 164.429688 L 241.996094 165.542969 L 239.964844 164.140625 L 241.082031 165.730469 L 238.898438 164.363281 L 240.664062 166.238281 L 237.847656 164.167969 L 238.832031 165.652344 L 236.636719 164 L 237.761719 165.691406 L 235.617188 164.207031 L 236.9375 165.460938 C 240.375 166.582031 244.035156 168.65625 247.503906 172.304688 L 244.320312 170.277344 L 245.414062 172.753906 L 242.414062 169.445312 L 242.90625 171.246094 L 241.242188 168.714844 L 241.441406 171.164062 L 239.53125 168.621094 L 240.410156 171.671875 L 238.203125 168 L 238.300781 170 C 241.664062 172.398438 244.449219 176.003906 245.34375 181.433594 L 243.425781 178.195312 L 242.515625 181.148438 L 241.9375 176.652344 L 240.925781 178.691406 L 241.214844 175.480469 L 239.292969 178.078125 L 239.308594 174.769531 L 237.644531 178.230469 L 238.304688 173.652344 L 236.441406 176.027344 L 237.046875 172.417969 L 234.914062 175.128906 L 235.230469 171.738281 L 234.085938 174.773438 C 235.128906 177.707031 234.769531 181.351562 231.574219 185.796875 L 232.300781 182.554688 L 229.171875 184.667969 L 232.113281 180.835938 L 229.597656 182.167969 L 232.351562 179.652344 L 228.550781 181.15625 L 231.132812 178.472656 L 226.902344 180.757812 L 231.066406 177.246094 L 227.492188 178.589844 L 230.855469 175.84375 L 226.773438 177.375 L 229.695312 174.71875 L 226.339844 176.785156 C 225.335938 178.605469 223.367188 180.535156 219.910156 182.488281 L 221.996094 180.289062 L 218.535156 181.21875 L 222.648438 179.011719 L 220.035156 179.496094 L 223.386719 178.203125 L 219.679688 178.566406 L 222.972656 177.121094 L 218.5625 177.96875 L 223.488281 176.226562 L 220.039062 176.515625 L 223.976562 175.175781 L 220.03125 175.503906 L 223.578125 174.140625 L 218.332031 175.378906 L 222.730469 174.007812 L 222.828125 173.9375 L 219.167969 174.246094 L 224.304688 172.378906 L 220.644531 172.792969 L 223.429688 171.761719 L 222.859375 171.828125 L 221.296875 172.332031 L 221.980469 171.9375 L 217.960938 172.429688 L 223.132812 170.984375 L 219.652344 171.199219 L 222.386719 170.6875 L 222.484375 170.632812 L 218.046875 170.824219 L 222.660156 169.84375 L 222.855469 169.722656 L 220.753906 169.859375 L 219.777344 170.171875 L 220.402344 169.878906 L 219.054688 169.96875 L 221.101562 169.5625 L 221.804688 169.238281 L 219.996094 169.359375 L 222.417969 168.785156 L 220.84375 168.851562 C 219.519531 169.394531 217.953125 170.085938 216.207031 170.960938 C 214.941406 171.601562 213.585938 172.320312 212.1875 173.140625 C 210.785156 173.949219 209.351562 174.878906 207.890625 175.855469 C 206.449219 176.867188 204.976562 177.925781 203.558594 179.09375 C 202.121094 180.238281 200.746094 181.492188 199.398438 182.761719 C 198.742188 183.414062 198.085938 184.0625 197.449219 184.730469 C 196.835938 185.417969 196.195312 186.0625 195.617188 186.761719 C 194.441406 188.136719 193.335938 189.527344 192.351562 190.925781 C 191.351562 192.316406 190.46875 193.710938 189.675781 195.050781 C 189.292969 195.730469 188.90625 196.382812 188.5625 197.027344 C 188.515625 197.113281 188.476562 197.191406 188.433594 197.277344 C 198.804688 199.425781 207.753906 205.683594 213.648438 214.371094 C 214.332031 215.378906 214.628906 216.671875 214.621094 217.941406 L 282.761719 215.699219 C 282.882812 215.535156 283.003906 215.382812 283.136719 215.234375 C 291.164062 205.425781 297.558594 194.226562 301.886719 182.050781 L 254.527344 179.136719 L 303.53125 177.085938 C 306.652344 166.902344 308.34375 156.097656 308.402344 144.898438 " fill-opacity="1" fill-rule="nonzero"/></g><path fill="#f46a4e" d="M 233.417969 173.300781 C 233.617188 173.660156 233.804688 174.03125 233.957031 174.421875 L 234.511719 171.910156 L 233.417969 173.300781 " fill-opacity="1" fill-rule="nonzero"/><path fill="#f46a4e" d="M 222.300781 161.5625 L 221.859375 161.480469 C 221.882812 161.511719 221.910156 161.535156 221.933594 161.566406 L 222.300781 161.5625 " fill-opacity="1" fill-rule="nonzero"/><path fill="#f46a4e" d="M 231.328125 166.675781 C 231.351562 166.683594 231.375 166.691406 231.394531 166.699219 L 231.316406 166.570312 L 231.328125 166.675781 " fill-opacity="1" fill-rule="nonzero"/><path fill="#f46a4e" d="M 219.703125 166.648438 L 219.710938 166.628906 L 219.570312 166.683594 C 219.617188 166.671875 219.660156 166.660156 219.703125 166.648438 " fill-opacity="1" fill-rule="nonzero"/><path fill="#f46a4e" d="M 225.433594 169 L 225.738281 168.832031 L 225.394531 168.953125 C 225.40625 168.96875 225.417969 168.984375 225.433594 169 " fill-opacity="1" fill-rule="nonzero"/><path fill="#f46a4e" d="M 220.878906 164.125 L 220.492188 164.21875 C 220.507812 164.230469 220.527344 164.242188 220.546875 164.257812 L 220.878906 164.125 " fill-opacity="1" fill-rule="nonzero"/><path fill="#f46a4e" d="M 230.105469 169.46875 L 230.183594 169.195312 L 230.015625 169.390625 C 230.046875 169.417969 230.078125 169.441406 230.105469 169.46875 " fill-opacity="1" fill-rule="nonzero"/><path fill="#f46a4e" d="M 223.109375 163.058594 L 223.222656 163.109375 L 223.480469 163.105469 Z M 223.109375 163.058594 " fill-opacity="1" fill-rule="nonzero"/><path fill="#f46a4e" d="M 227.394531 167.585938 C 227.402344 167.59375 227.40625 167.597656 227.414062 167.601562 L 227.453125 167.519531 L 227.394531 167.585938 " fill-opacity="1" fill-rule="nonzero"/><path fill="#f46a4e" d="M 228.21875 168.097656 C 228.242188 168.113281 228.265625 168.125 228.289062 168.144531 L 228.40625 167.875 L 228.21875 168.097656 " fill-opacity="1" fill-rule="nonzero"/><g fill="#103b53" fill-opacity="1"><g transform="translate(75.526362, 269.337784)"><g><path d="M 21.625 -23.546875 L 21.625 0 L 11.453125 0 L 11.453125 -23.546875 L 1.0625 -23.546875 L 1.0625 -31.640625 L 31.96875 -31.640625 L 31.96875 -23.546875 Z M 21.625 -23.546875 "/></g></g></g><g fill="#103b53" fill-opacity="1"><g transform="translate(109.655574, 269.337784)"><g><path d="M 23.046875 0 L 12.875 0 L 12.875 -12.28125 L 0.328125 -31.640625 L 12 -31.640625 L 18.078125 -21.109375 L 18.265625 -21.109375 L 24.328125 -31.640625 L 35.421875 -31.640625 L 23.046875 -12.28125 Z M 23.046875 0 "/></g></g></g><g fill="#103b53" fill-opacity="1"><g transform="translate(146.360565, 269.337784)"><g/></g></g><g fill="#103b53" fill-opacity="1"><g transform="translate(162.597287, 269.337784)"><g><path d="M 21.15625 -31.640625 C 23.125 -31.640625 24.875 -31.1875 26.40625 -30.28125 C 27.9375 -29.382812 29.128906 -28.144531 29.984375 -26.5625 C 30.847656 -24.988281 31.28125 -23.21875 31.28125 -21.25 L 31.28125 -20.65625 C 31.28125 -18.6875 30.847656 -16.90625 29.984375 -15.3125 C 29.128906 -13.71875 27.9375 -12.46875 26.40625 -11.5625 C 24.875 -10.664062 23.125 -10.21875 21.15625 -10.21875 L 13.5625 -10.21875 L 13.5625 0 L 3.40625 0 L 3.40625 -31.640625 Z M 13.5625 -17.625 L 17.75 -17.625 C 18.820312 -17.625 19.625 -17.898438 20.15625 -18.453125 C 20.695312 -19.003906 20.96875 -19.753906 20.96875 -20.703125 L 20.96875 -21.0625 C 20.96875 -22.050781 20.695312 -22.8125 20.15625 -23.34375 C 19.625 -23.882812 18.820312 -24.15625 17.75 -24.15625 L 13.5625 -24.15625 Z M 13.5625 -17.625 "/></g></g></g><g fill="#103b53" fill-opacity="1"><g transform="translate(196.726496, 269.337784)"><g><path d="M 24.609375 0 L 23.28125 -4.46875 L 12.1875 -4.46875 L 10.859375 0 L 0.453125 0 L 12 -31.640625 L 23.828125 -31.640625 L 35.375 0 Z M 14.3125 -11.546875 L 21.15625 -11.546875 L 17.84375 -22.8125 L 17.65625 -22.8125 Z M 14.3125 -11.546875 "/></g></g></g><g fill="#103b53" fill-opacity="1"><g transform="translate(233.431483, 269.337784)"><g><path d="M 16.703125 -32.203125 C 20.742188 -32.203125 24.066406 -31.378906 26.671875 -29.734375 C 29.285156 -28.097656 30.625 -25.671875 30.6875 -22.453125 L 30.6875 -21.890625 L 21.15625 -21.890625 L 21.15625 -22.078125 C 21.15625 -22.992188 20.816406 -23.757812 20.140625 -24.375 C 19.472656 -24.988281 18.445312 -25.296875 17.0625 -25.296875 C 15.71875 -25.296875 14.679688 -25.097656 13.953125 -24.703125 C 13.234375 -24.304688 12.875 -23.816406 12.875 -23.234375 C 12.875 -22.398438 13.363281 -21.785156 14.34375 -21.390625 C 15.332031 -20.992188 16.914062 -20.578125 19.09375 -20.140625 C 21.632812 -19.617188 23.722656 -19.070312 25.359375 -18.5 C 27.003906 -17.9375 28.441406 -17.007812 29.671875 -15.71875 C 30.898438 -14.4375 31.53125 -12.691406 31.5625 -10.484375 C 31.5625 -6.742188 30.296875 -3.96875 27.765625 -2.15625 C 25.234375 -0.351562 21.851562 0.546875 17.625 0.546875 C 12.6875 0.546875 8.84375 -0.28125 6.09375 -1.9375 C 3.351562 -3.59375 1.984375 -6.519531 1.984375 -10.71875 L 11.59375 -10.71875 C 11.59375 -9.125 12.003906 -8.054688 12.828125 -7.515625 C 13.660156 -6.984375 14.953125 -6.71875 16.703125 -6.71875 C 17.984375 -6.71875 19.046875 -6.851562 19.890625 -7.125 C 20.734375 -7.40625 21.15625 -7.972656 21.15625 -8.828125 C 21.15625 -9.597656 20.6875 -10.171875 19.75 -10.546875 C 18.820312 -10.929688 17.300781 -11.34375 15.1875 -11.78125 C 12.601562 -12.332031 10.46875 -12.90625 8.78125 -13.5 C 7.09375 -14.09375 5.617188 -15.078125 4.359375 -16.453125 C 3.109375 -17.835938 2.484375 -19.710938 2.484375 -22.078125 C 2.484375 -25.546875 3.820312 -28.097656 6.5 -29.734375 C 9.1875 -31.378906 12.585938 -32.203125 16.703125 -32.203125 Z M 16.703125 -32.203125 "/></g></g></g><g fill="#103b53" fill-opacity="1"><g transform="translate(267.560704, 269.337784)"><g><path d="M 16.703125 -32.203125 C 20.742188 -32.203125 24.066406 -31.378906 26.671875 -29.734375 C 29.285156 -28.097656 30.625 -25.671875 30.6875 -22.453125 L 30.6875 -21.890625 L 21.15625 -21.890625 L 21.15625 -22.078125 C 21.15625 -22.992188 20.816406 -23.757812 20.140625 -24.375 C 19.472656 -24.988281 18.445312 -25.296875 17.0625 -25.296875 C 15.71875 -25.296875 14.679688 -25.097656 13.953125 -24.703125 C 13.234375 -24.304688 12.875 -23.816406 12.875 -23.234375 C 12.875 -22.398438 13.363281 -21.785156 14.34375 -21.390625 C 15.332031 -20.992188 16.914062 -20.578125 19.09375 -20.140625 C 21.632812 -19.617188 23.722656 -19.070312 25.359375 -18.5 C 27.003906 -17.9375 28.441406 -17.007812 29.671875 -15.71875 C 30.898438 -14.4375 31.53125 -12.691406 31.5625 -10.484375 C 31.5625 -6.742188 30.296875 -3.96875 27.765625 -2.15625 C 25.234375 -0.351562 21.851562 0.546875 17.625 0.546875 C 12.6875 0.546875 8.84375 -0.28125 6.09375 -1.9375 C 3.351562 -3.59375 1.984375 -6.519531 1.984375 -10.71875 L 11.59375 -10.71875 C 11.59375 -9.125 12.003906 -8.054688 12.828125 -7.515625 C 13.660156 -6.984375 14.953125 -6.71875 16.703125 -6.71875 C 17.984375 -6.71875 19.046875 -6.851562 19.890625 -7.125 C 20.734375 -7.40625 21.15625 -7.972656 21.15625 -8.828125 C 21.15625 -9.597656 20.6875 -10.171875 19.75 -10.546875 C 18.820312 -10.929688 17.300781 -11.34375 15.1875 -11.78125 C 12.601562 -12.332031 10.46875 -12.90625 8.78125 -13.5 C 7.09375 -14.09375 5.617188 -15.078125 4.359375 -16.453125 C 3.109375 -17.835938 2.484375 -19.710938 2.484375 -22.078125 C 2.484375 -25.546875 3.820312 -28.097656 6.5 -29.734375 C 9.1875 -31.378906 12.585938 -32.203125 16.703125 -32.203125 Z M 16.703125 -32.203125 "/></g></g></g><g fill="#103b53" fill-opacity="1"><g transform="translate(301.686507, 269.337784)"><g/></g></g><g fill="#103b53" fill-opacity="1"><g transform="translate(116.667719, 319.816577)"><g><path d="M 5.054688 -0.792969 C 5.359375 -0.792969 5.542969 -0.667969 5.785156 -0.546875 C 5.96875 -0.425781 6.152344 -0.304688 6.394531 -0.304688 C 6.578125 -0.304688 6.820312 -0.367188 7.0625 -0.609375 C 7.1875 -0.609375 7.308594 -0.609375 7.429688 -0.609375 C 7.671875 -0.609375 7.855469 -0.609375 8.160156 -0.609375 C 8.464844 -0.609375 9.257812 -1.765625 9.683594 -2.375 L 11.328125 -4.445312 C 11.996094 -5.238281 12.542969 -6.273438 12.910156 -6.941406 L 12.910156 -6.882812 C 12.910156 -6.941406 12.972656 -6.941406 12.972656 -7.003906 C 13.582031 -3.347656 16.078125 1.707031 17.660156 1.644531 C 18.027344 1.644531 18.390625 1.523438 18.757812 1.402344 L 19.0625 1.402344 C 19.792969 1.339844 20.460938 1.15625 21.496094 0.851562 C 21.679688 1.035156 21.863281 1.15625 21.984375 1.15625 C 22.289062 1.15625 22.410156 0.667969 22.59375 0.121094 C 22.777344 -0.425781 23.082031 -1.097656 23.566406 -1.15625 C 25.453125 -1.523438 28.683594 -7.125 29.472656 -8.769531 C 29.597656 -9.011719 29.71875 -9.195312 29.902344 -9.378906 C 31.242188 -11.328125 32.640625 -13.519531 32.519531 -15.042969 L 32.519531 -15.527344 C 33.25 -16.867188 33.371094 -17.539062 33.3125 -17.84375 C 33.3125 -18.148438 33.066406 -18.269531 32.703125 -18.269531 C 32.09375 -18.269531 31.363281 -16.5625 30.632812 -14.917969 C 30.203125 -13.945312 29.839844 -13.09375 29.597656 -12.726562 C 26.976562 -8.160156 22.714844 -2.070312 20.765625 -1.21875 C 20.644531 -1.21875 20.582031 -1.339844 20.523438 -1.582031 C 20.402344 -2.4375 20.644531 -3.59375 20.886719 -4.871094 L 20.886719 -4.8125 C 21.007812 -5.175781 21.007812 -5.90625 20.949219 -6.273438 L 20.949219 -6.515625 C 20.949219 -6.757812 20.886719 -6.882812 20.828125 -7.0625 C 21.007812 -8.28125 21.496094 -9.683594 22.167969 -11.082031 C 22.226562 -11.207031 22.347656 -11.328125 22.347656 -11.449219 L 23.992188 -16.867188 L 23.992188 -17.113281 C 23.992188 -17.171875 24.054688 -17.234375 24.054688 -17.292969 C 23.933594 -17.539062 23.871094 -17.78125 23.871094 -18.027344 C 23.871094 -18.332031 23.871094 -18.757812 23.933594 -19 L 24.238281 -19.914062 C 24.601562 -20.886719 24.601562 -20.886719 24.785156 -22.53125 C 24.664062 -22.652344 24.664062 -22.777344 24.601562 -22.898438 L 24.601562 -23.019531 C 24.664062 -23.324219 25.027344 -25.757812 25.027344 -25.882812 C 24.96875 -26.003906 25.332031 -26.855469 25.636719 -27.527344 C 25.882812 -28.132812 26.1875 -28.867188 26.1875 -29.167969 C 26.550781 -30.265625 26.671875 -31.605469 26.671875 -32.761719 C 26.671875 -33.617188 26.613281 -34.40625 26.550781 -35.199219 C 26.492188 -35.929688 26.492188 -36.660156 26.492188 -37.269531 C 26.492188 -37.757812 26.492188 -38.242188 26.550781 -38.667969 C 26.792969 -39.644531 26.792969 -40.3125 26.792969 -41.289062 C 26.792969 -41.347656 26.734375 -41.410156 26.734375 -41.472656 C 26.367188 -44.332031 25.210938 -45.671875 22.289062 -45.671875 C 21.800781 -45.671875 21.253906 -45.550781 20.21875 -45.246094 C 20.15625 -45.1875 19.792969 -43.96875 19.546875 -43.238281 L 19.242188 -43.359375 C 19.0625 -42.75 19 -41.835938 19 -40.984375 C 19 -39.828125 19.121094 -38.667969 19.183594 -38.304688 C 18.816406 -36.902344 18.453125 -35.382812 18.332031 -34.46875 C 18.207031 -33.617188 18.085938 -32.824219 17.84375 -31.847656 L 17.660156 -30.753906 C 17.292969 -28.683594 16.808594 -25.210938 16.746094 -23.871094 C 16.746094 -23.871094 15.222656 -25.089844 13.582031 -25.027344 C 9.867188 -24.847656 3.59375 -19.0625 1.339844 -12.726562 L 1.402344 -12.726562 C 0.0625 -10.167969 -0.121094 -9.074219 -0.121094 -6.332031 C 0.242188 -3.652344 2.070312 -0.792969 5.054688 -0.792969 Z M 7.671875 -10.351562 L 7.671875 -10.292969 C 9.867188 -14.066406 13.582031 -19.367188 15.894531 -20.277344 C 16.015625 -20.15625 16.078125 -19.914062 16.136719 -19.730469 C 16.503906 -15.46875 9.5 -4.019531 7.003906 -2.984375 C 6.515625 -3.042969 6.394531 -4.140625 6.332031 -4.8125 C 6.332031 -4.871094 6.273438 -4.933594 6.273438 -4.992188 L 6.152344 -6.273438 L 5.90625 -6.757812 C 5.96875 -7.308594 6.699219 -8.707031 7.308594 -9.621094 Z M 7.671875 -10.351562 "/></g></g></g><g fill="#103b53" fill-opacity="1"><g transform="translate(147.845569, 319.816577)"><g><path d="M 10.167969 -15.652344 C 10.167969 -15.832031 10.167969 -16.199219 10.109375 -16.382812 C 10.109375 -16.5625 10.109375 -16.867188 10.046875 -17.050781 L 9.988281 -17.234375 C 9.925781 -17.234375 9.925781 -17.292969 9.925781 -17.355469 L 10.046875 -17.84375 C 10.292969 -18.632812 10.414062 -19.488281 10.351562 -20.097656 C 10.046875 -22.226562 8.648438 -24.847656 6.210938 -24.847656 C 5.847656 -24.847656 5.542969 -24.785156 5.296875 -24.601562 C 4.6875 -24.359375 4.324219 -23.6875 4.140625 -22.777344 L 4.140625 -22.410156 C 3.652344 -20.765625 2.921875 -19 2.191406 -17.234375 L 1.21875 -14.128906 C 0.914062 -12.667969 0.667969 -11.386719 0.488281 -10.167969 L 0.488281 -9.074219 C 0.488281 -8.707031 0.425781 -8.34375 0.425781 -7.976562 C 0.425781 -4.628906 1.644531 -0.792969 5.359375 -0.0625 C 6.273438 -0.0625 7.0625 -0.121094 7.917969 -0.546875 L 7.917969 -0.488281 C 8.648438 -0.792969 9.378906 -1.339844 10.230469 -1.886719 L 10.167969 -1.886719 L 10.472656 -2.070312 C 11.023438 -2.558594 11.570312 -3.226562 12.117188 -3.835938 L 12.667969 -4.445312 C 13.640625 -5.480469 14.433594 -6.636719 15.164062 -7.734375 L 15.527344 -8.402344 L 15.527344 -8.464844 L 15.710938 -8.953125 L 15.710938 -8.890625 C 16.808594 -10.597656 17.722656 -12.242188 18.511719 -13.582031 L 19 -14.433594 C 19.183594 -14.796875 19.425781 -15.164062 19.609375 -15.40625 L 19.609375 -15.46875 C 19.730469 -15.589844 19.730469 -15.710938 19.667969 -15.832031 C 19.972656 -16.625 19.667969 -16.992188 19.242188 -16.992188 C 18.9375 -16.992188 18.632812 -16.867188 18.332031 -16.5625 C 16.746094 -13.398438 14.007812 -9.011719 11.8125 -6.394531 L 11.386719 -5.90625 C 10.777344 -5.238281 10.109375 -4.507812 9.378906 -4.082031 C 8.402344 -3.226562 7.613281 -2.617188 7.1875 -2.4375 C 6.699219 -2.558594 6.394531 -2.921875 6.394531 -3.347656 C 6.394531 -3.898438 6.699219 -4.566406 7.125 -5.359375 L 7.367188 -5.601562 C 7.613281 -5.847656 7.613281 -5.90625 7.550781 -6.089844 L 7.492188 -6.152344 C 7.792969 -7.671875 8.28125 -9.378906 8.890625 -11.023438 L 8.890625 -11.386719 C 9.011719 -11.632812 9.195312 -12.058594 9.257812 -12.300781 C 9.5625 -13.03125 9.925781 -13.945312 10.230469 -14.917969 C 10.167969 -15.164062 10.167969 -15.40625 10.167969 -15.652344 Z M 11.632812 -40.496094 C 10.71875 -40.496094 9.683594 -40.007812 8.832031 -39.21875 C 8.222656 -38.667969 7.792969 -37.816406 7.855469 -36.539062 C 7.855469 -34.894531 8.648438 -33.433594 9.5 -32.703125 C 10.292969 -32.214844 11.144531 -31.910156 11.9375 -31.847656 C 12.910156 -31.847656 13.152344 -32.152344 14.25 -33.917969 L 14.980469 -35.136719 C 15.285156 -35.5625 15.46875 -35.992188 15.652344 -36.292969 L 15.589844 -36.292969 C 15.957031 -36.78125 16.199219 -37.269531 16.136719 -37.9375 C 16.015625 -38.304688 15.710938 -38.730469 15.347656 -39.035156 C 14.3125 -39.886719 12.484375 -40.558594 11.632812 -40.496094 Z M 11.632812 -40.496094 "/></g></g></g><g fill="#103b53" fill-opacity="1"><g transform="translate(165.566045, 319.816577)"><g><path d="M 4.445312 18.269531 C 4.6875 18.332031 4.8125 18.332031 5.054688 18.332031 C 5.847656 18.332031 6.515625 18.148438 7.1875 17.902344 L 7.308594 17.902344 C 7.367188 17.964844 7.429688 17.964844 7.429688 17.964844 C 8.402344 17.964844 9.867188 15.957031 10.167969 15.222656 C 10.351562 15.101562 10.839844 14.554688 11.082031 14.25 L 11.082031 14.3125 C 11.691406 13.703125 12.421875 12.910156 12.542969 12.484375 C 13.214844 11.570312 14.007812 10.351562 13.945312 9.195312 C 15.46875 6.699219 16.382812 4.203125 17.171875 1.523438 C 17.292969 1.21875 20.402344 -1.097656 20.949219 -1.339844 C 23.382812 -2.679688 31.667969 -13.398438 31.484375 -14.917969 C 31.421875 -15.347656 31.179688 -15.589844 30.753906 -15.589844 C 30.386719 -15.589844 30.082031 -15.40625 29.839844 -15.042969 C 27.402344 -10.65625 23.507812 -5.90625 20.097656 -3.472656 L 18.9375 -2.496094 L 19.730469 -4.75 L 20.035156 -6.273438 C 20.277344 -7.613281 20.644531 -9.132812 20.582031 -10.414062 C 20.523438 -10.535156 20.523438 -10.597656 20.523438 -10.71875 C 20.460938 -11.082031 20.582031 -11.507812 20.644531 -11.9375 C 20.707031 -12.363281 20.765625 -12.667969 20.707031 -12.972656 C 20.644531 -13.519531 20.277344 -14.007812 19.914062 -14.492188 C 19.0625 -17.597656 17.171875 -19.0625 15.652344 -19.0625 C 15.101562 -19.0625 14.1875 -17.964844 14.3125 -15.957031 C 14.25 -15.527344 14.007812 -14.980469 13.703125 -14.433594 C 13.457031 -13.882812 13.214844 -13.398438 13.03125 -12.605469 L 13.03125 -11.753906 L 11.449219 -7.855469 C 9.925781 -4.75 7.734375 -2.800781 6.757812 -2.800781 C 6.394531 -2.800781 6.273438 -2.984375 6.210938 -3.347656 C 6.152344 -3.835938 6.394531 -4.6875 6.882812 -5.722656 L 6.757812 -6.457031 C 6.699219 -6.699219 6.636719 -6.941406 6.636719 -7.125 C 6.636719 -7.308594 6.578125 -7.367188 6.636719 -7.492188 L 7.125 -9.316406 C 7.246094 -10.414062 8.039062 -11.691406 8.769531 -12.910156 L 9.378906 -14.007812 C 9.5 -14.25 9.5625 -14.3125 9.621094 -14.554688 L 9.621094 -14.492188 L 10.597656 -16.078125 C 12.117188 -18.574219 13.640625 -20.949219 16.382812 -20.949219 C 16.625 -20.949219 16.6875 -21.132812 16.6875 -21.4375 C 16.5625 -22.714844 14.980469 -24.722656 13.457031 -24.722656 C 12.421875 -24.722656 11.207031 -24.296875 10.109375 -23.566406 C 9.195312 -23.445312 8.402344 -23.203125 7.246094 -22.652344 L 7.125 -22.652344 C 7.0625 -22.652344 6.882812 -22.714844 6.820312 -22.714844 C 6.757812 -22.652344 6.699219 -22.652344 6.636719 -22.652344 L 6.332031 -22.652344 L 3.167969 -18.695312 C 0.609375 -15.101562 -0.0625 -12.058594 -0.367188 -9.316406 L -0.367188 -9.378906 C -0.546875 -8.769531 -0.488281 -7.855469 -0.488281 -7.550781 C -0.488281 -7.003906 -0.183594 -6.152344 0.121094 -5.785156 L 0.972656 -4.75 C 1.15625 -4.507812 1.460938 -4.324219 1.707031 -4.203125 L 1.886719 -4.082031 C 3.042969 -1.828125 5.96875 0 7.429688 0 C 7.976562 0 8.707031 -0.546875 9.683594 -1.765625 L 9.621094 -1.886719 C 9.804688 -1.949219 9.988281 -2.007812 10.046875 -2.132812 C 11.207031 -3.410156 12.667969 -5.175781 13.277344 -6.089844 C 12.972656 -5.054688 11.8125 -1.582031 11.023438 0.488281 C 11.023438 0.792969 10.960938 1.402344 10.960938 1.707031 L 10.777344 2.070312 C 10.292969 2.984375 10.109375 3.347656 9.074219 4.019531 L 6.210938 5.785156 L 5.480469 6.332031 C 1.523438 9.132812 -3.042969 12.363281 -2.800781 15.164062 C -2.191406 18.453125 0.730469 18.511719 2.191406 18.511719 C 2.921875 18.511719 3.714844 18.453125 4.445312 18.269531 Z M -1.277344 14.859375 C -1.339844 14.128906 -0.730469 13.277344 1.035156 12.058594 L 1.21875 11.8125 C 3.289062 10.292969 5.96875 8.585938 7.671875 7.492188 L 8.769531 6.757812 C 8.097656 8.527344 6.089844 12.789062 4.75 14.675781 C 3.957031 15.710938 2.617188 16.199219 1.707031 16.199219 C 0.972656 16.199219 0.488281 16.015625 -0.242188 15.710938 C -0.667969 15.652344 -1.15625 15.347656 -1.277344 14.859375 Z M -1.277344 14.859375 "/></g></g></g><g fill="#103b53" fill-opacity="1"><g transform="translate(195.465137, 319.816577)"><g><path d="M 10.167969 -15.652344 C 10.167969 -15.832031 10.167969 -16.199219 10.109375 -16.382812 C 10.109375 -16.5625 10.109375 -16.867188 10.046875 -17.050781 L 9.988281 -17.234375 C 9.925781 -17.234375 9.925781 -17.292969 9.925781 -17.355469 L 10.046875 -17.84375 C 10.292969 -18.632812 10.414062 -19.488281 10.351562 -20.097656 C 10.046875 -22.226562 8.648438 -24.847656 6.210938 -24.847656 C 5.847656 -24.847656 5.542969 -24.785156 5.296875 -24.601562 C 4.6875 -24.359375 4.324219 -23.6875 4.140625 -22.777344 L 4.140625 -22.410156 C 3.652344 -20.765625 2.921875 -19 2.191406 -17.234375 L 1.21875 -14.128906 C 0.914062 -12.667969 0.667969 -11.386719 0.488281 -10.167969 L 0.488281 -9.074219 C 0.488281 -8.707031 0.425781 -8.34375 0.425781 -7.976562 C 0.425781 -4.628906 1.644531 -0.792969 5.359375 -0.0625 C 6.273438 -0.0625 7.0625 -0.121094 7.917969 -0.546875 L 7.917969 -0.488281 C 8.648438 -0.792969 9.378906 -1.339844 10.230469 -1.886719 L 10.167969 -1.886719 L 10.472656 -2.070312 C 11.023438 -2.558594 11.570312 -3.226562 12.117188 -3.835938 L 12.667969 -4.445312 C 13.640625 -5.480469 14.433594 -6.636719 15.164062 -7.734375 L 15.527344 -8.402344 L 15.527344 -8.464844 L 15.710938 -8.953125 L 15.710938 -8.890625 C 16.808594 -10.597656 17.722656 -12.242188 18.511719 -13.582031 L 19 -14.433594 C 19.183594 -14.796875 19.425781 -15.164062 19.609375 -15.40625 L 19.609375 -15.46875 C 19.730469 -15.589844 19.730469 -15.710938 19.667969 -15.832031 C 19.972656 -16.625 19.667969 -16.992188 19.242188 -16.992188 C 18.9375 -16.992188 18.632812 -16.867188 18.332031 -16.5625 C 16.746094 -13.398438 14.007812 -9.011719 11.8125 -6.394531 L 11.386719 -5.90625 C 10.777344 -5.238281 10.109375 -4.507812 9.378906 -4.082031 C 8.402344 -3.226562 7.613281 -2.617188 7.1875 -2.4375 C 6.699219 -2.558594 6.394531 -2.921875 6.394531 -3.347656 C 6.394531 -3.898438 6.699219 -4.566406 7.125 -5.359375 L 7.367188 -5.601562 C 7.613281 -5.847656 7.613281 -5.90625 7.550781 -6.089844 L 7.492188 -6.152344 C 7.792969 -7.671875 8.28125 -9.378906 8.890625 -11.023438 L 8.890625 -11.386719 C 9.011719 -11.632812 9.195312 -12.058594 9.257812 -12.300781 C 9.5625 -13.03125 9.925781 -13.945312 10.230469 -14.917969 C 10.167969 -15.164062 10.167969 -15.40625 10.167969 -15.652344 Z M 11.632812 -40.496094 C 10.71875 -40.496094 9.683594 -40.007812 8.832031 -39.21875 C 8.222656 -38.667969 7.792969 -37.816406 7.855469 -36.539062 C 7.855469 -34.894531 8.648438 -33.433594 9.5 -32.703125 C 10.292969 -32.214844 11.144531 -31.910156 11.9375 -31.847656 C 12.910156 -31.847656 13.152344 -32.152344 14.25 -33.917969 L 14.980469 -35.136719 C 15.285156 -35.5625 15.46875 -35.992188 15.652344 -36.292969 L 15.589844 -36.292969 C 15.957031 -36.78125 16.199219 -37.269531 16.136719 -37.9375 C 16.015625 -38.304688 15.710938 -38.730469 15.347656 -39.035156 C 14.3125 -39.886719 12.484375 -40.558594 11.632812 -40.496094 Z M 11.632812 -40.496094 "/></g></g></g><g fill="#103b53" fill-opacity="1"><g transform="translate(213.185615, 319.816577)"><g><path d="M 16.6875 -38.914062 C 16.382812 -39.15625 16.199219 -39.949219 16.015625 -40.617188 L 15.652344 -41.777344 L 15.652344 -42.8125 C 15.285156 -45.917969 12.242188 -47.683594 11.144531 -47.683594 C 10.167969 -47.683594 9.925781 -45.550781 9.683594 -43.054688 C 9.5625 -41.777344 9.4375 -40.253906 9.195312 -38.851562 C 9.132812 -38.488281 8.953125 -38 8.769531 -37.574219 C 8.585938 -37.207031 8.464844 -36.84375 8.34375 -36.292969 L 8.34375 -36.355469 L 6.882812 -32.398438 C 6.210938 -32.457031 5.417969 -32.519531 4.75 -32.519531 L 2.617188 -32.640625 C -0.914062 -32.945312 -3.59375 -33.675781 -5.417969 -34.40625 L -6.273438 -34.285156 C -6.457031 -34.46875 -6.578125 -34.527344 -6.699219 -34.527344 C -6.757812 -34.527344 -6.882812 -34.46875 -6.941406 -34.40625 C -7.246094 -34.40625 -7.367188 -34.164062 -7.367188 -33.917969 C -6.941406 -31.972656 -2.558594 -30.386719 2.679688 -29.839844 L 6.027344 -29.472656 C 5.847656 -28.5625 5.722656 -27.707031 5.601562 -26.855469 C 5.296875 -25.210938 5.054688 -23.445312 4.566406 -21.863281 L 4.566406 -21.921875 C 4.324219 -21.3125 4.140625 -20.460938 3.957031 -19.667969 L 3.714844 -18.632812 C 3.714844 -18.453125 3.777344 -18.269531 3.777344 -18.085938 C 2.253906 -13.945312 1.339844 -9.742188 1.460938 -7.550781 C 1.644531 -6.210938 3.53125 -4.445312 4.75 -3.347656 C 5.296875 -2.132812 6.210938 -1.21875 7.976562 -1.21875 C 9.5625 -1.21875 11.9375 -3.410156 14.007812 -5.722656 L 16.199219 -8.464844 C 19.851562 -13.03125 22.105469 -17.171875 22.347656 -18.816406 C 22.347656 -18.9375 22.347656 -19.121094 22.226562 -19.304688 L 22.289062 -19.367188 L 22.289062 -19.304688 C 22.347656 -19.488281 22.410156 -19.667969 22.347656 -19.851562 C 22.347656 -20.15625 22.042969 -20.402344 21.800781 -20.402344 C 21.191406 -20.402344 19.121094 -16.441406 18.390625 -14.980469 L 18.390625 -15.042969 L 18.085938 -14.433594 C 17.539062 -13.214844 16.441406 -11.875 15.46875 -10.65625 C 15.101562 -10.230469 14.675781 -9.804688 14.371094 -9.378906 C 12.605469 -7.246094 10.046875 -4.628906 8.953125 -4.140625 C 8.707031 -4.382812 8.648438 -4.6875 8.648438 -5.117188 C 8.402344 -7.246094 9.621094 -10.839844 11.023438 -14.859375 L 12.667969 -19.792969 L 12.542969 -21.191406 C 13.03125 -22.652344 13.398438 -24.542969 13.640625 -26.125 C 13.761719 -27.160156 13.945312 -28.195312 14.128906 -29.230469 L 19.367188 -28.988281 L 19.667969 -28.988281 C 19.851562 -28.925781 19.972656 -28.925781 20.21875 -28.925781 C 24.722656 -28.4375 28.867188 -26.976562 29.167969 -25.578125 L 29.71875 -25.578125 C 29.839844 -25.578125 29.902344 -25.578125 30.023438 -25.578125 C 30.386719 -25.578125 30.8125 -25.699219 30.691406 -26.308594 C 30.449219 -28.074219 27.527344 -30.8125 20.828125 -31.484375 L 20.15625 -31.484375 C 19.972656 -31.421875 19.792969 -31.421875 19.667969 -31.421875 L 14.796875 -31.667969 C 15.589844 -34.347656 16.199219 -36.597656 16.6875 -38.730469 Z M 16.6875 -38.914062 "/></g></g></g><g fill="#103b53" fill-opacity="1"><g transform="translate(231.758591, 319.816577)"><g><path d="M 5.296875 -4.261719 C 5.296875 -4.445312 5.480469 -5.054688 5.601562 -5.480469 L 5.601562 -5.417969 L 5.664062 -5.785156 C 6.089844 -6.882812 6.394531 -7.550781 6.820312 -8.464844 L 7.367188 -9.621094 C 7.734375 -10.597656 8.097656 -11.449219 8.707031 -12.421875 C 9.011719 -13.761719 10.351562 -14.917969 11.449219 -15.894531 L 12.542969 -16.929688 C 13.882812 -18.390625 16.746094 -18.878906 18.085938 -18.878906 C 18.207031 -18.878906 18.390625 -18.878906 18.511719 -18.816406 C 19.0625 -18.9375 19.304688 -19.367188 19.242188 -19.972656 C 19.121094 -21.132812 16.015625 -23.324219 14.371094 -23.75 L 14.066406 -23.75 C 12.726562 -23.75 9.925781 -22.898438 8.34375 -21.800781 L 8.402344 -21.800781 L 7.492188 -21.375 C 5.359375 -19.914062 3.652344 -17.78125 2.132812 -15.773438 L 1.582031 -14.554688 C -0.304688 -11.449219 -1.765625 -7.613281 -1.582031 -4.871094 C -1.15625 -0.425781 2.800781 1.21875 5.785156 1.21875 C 6.332031 1.21875 7.0625 0.667969 7.855469 0.0625 L 8.097656 -0.121094 C 8.832031 -0.183594 9.621094 -1.277344 10.292969 -2.3125 C 10.472656 -2.617188 10.597656 -2.921875 10.902344 -3.226562 L 12.058594 -5.542969 L 12.058594 -5.480469 L 12.910156 -6.757812 C 12.910156 -6.636719 12.910156 -6.820312 12.847656 -6.457031 C 12.847656 -6.394531 12.789062 -6.332031 12.789062 -6.273438 L 12.847656 -5.785156 C 12.910156 -5.359375 12.910156 -5.054688 12.910156 -4.75 C 12.910156 -4.445312 12.910156 -4.019531 12.972656 -3.714844 C 12.972656 -3.167969 13.09375 -2.496094 13.277344 -2.007812 C 13.703125 -0.488281 15.710938 1.949219 17.597656 1.949219 C 18.085938 1.949219 18.511719 1.765625 19 1.582031 L 19.488281 1.402344 C 20.644531 1.339844 23.203125 -1.097656 23.6875 -2.191406 C 24.175781 -2.800781 25.152344 -4.445312 26.125 -6.027344 C 27.039062 -7.492188 27.890625 -8.890625 28.316406 -9.4375 C 29.351562 -11.265625 30.144531 -12.363281 30.632812 -13.03125 C 30.996094 -13.582031 31.179688 -13.882812 31.179688 -14.066406 C 31.242188 -14.371094 31.242188 -14.554688 31.242188 -14.738281 C 31.179688 -15.164062 30.9375 -15.347656 30.632812 -15.347656 C 30.386719 -15.347656 30.082031 -15.222656 29.902344 -15.042969 L 28.4375 -12.726562 C 28.132812 -12.117188 27.527344 -11.328125 27.28125 -10.777344 C 26.855469 -9.804688 26.308594 -9.132812 26.003906 -8.648438 L 24.175781 -5.417969 C 23.019531 -3.53125 20.765625 -0.667969 19.304688 -0.667969 C 19 -0.667969 18.390625 -0.730469 18.390625 -0.914062 C 18.332031 -1.15625 18.574219 -1.707031 18.9375 -2.4375 L 19.667969 -4.628906 C 19.792969 -5.175781 19.972656 -5.664062 20.15625 -6.152344 C 20.460938 -6.882812 20.707031 -7.613281 20.765625 -8.585938 C 20.765625 -9.925781 21.007812 -10.535156 21.191406 -10.902344 C 21.253906 -11.082031 21.3125 -11.328125 21.3125 -11.507812 C 21.3125 -11.632812 21.496094 -12.242188 21.742188 -12.847656 C 22.042969 -13.640625 22.410156 -14.554688 22.347656 -14.738281 C 22.289062 -15.222656 21.984375 -15.40625 21.679688 -15.652344 L 21.742188 -15.652344 L 21.617188 -15.710938 L 21.617188 -15.773438 C 21.617188 -15.832031 21.617188 -15.894531 21.558594 -16.015625 C 20.644531 -16.867188 19.730469 -16.867188 18.574219 -16.867188 C 17.902344 -16.867188 15.710938 -16.746094 15.710938 -15.957031 C 15.527344 -15.46875 15.347656 -15.101562 15.222656 -14.980469 C 15.042969 -14.738281 14.796875 -14.433594 14.554688 -13.703125 C 14.371094 -13.03125 14.1875 -12.363281 13.945312 -11.875 C 13.335938 -10.960938 12.726562 -9.683594 12.058594 -8.28125 C 11.144531 -6.457031 10.109375 -4.324219 9.132812 -2.984375 C 8.402344 -2.191406 7.734375 -1.460938 6.578125 -1.460938 L 6.394531 -1.460938 C 6.027344 -1.460938 5.785156 -1.765625 5.722656 -2.375 C 5.722656 -2.558594 5.664062 -2.679688 5.601562 -2.800781 C 5.542969 -3.042969 5.480469 -3.347656 5.480469 -3.59375 L 5.359375 -4.203125 Z M 5.296875 -4.261719 "/></g></g></g><g fill="#103b53" fill-opacity="1"><g transform="translate(261.779467, 319.816577)"><g><path d="M 14.917969 -8.585938 C 16.625 -11.144531 18.148438 -14.007812 18.878906 -15.957031 L 19.121094 -16.5625 L 19.0625 -16.5625 C 20.402344 -19.0625 20.523438 -19.792969 20.523438 -20.15625 C 20.402344 -20.460938 20.15625 -20.582031 19.914062 -20.582031 C 19.730469 -20.582031 19.425781 -20.460938 19.242188 -20.277344 L 19.121094 -20.277344 C 18.816406 -20.277344 18.269531 -19.0625 17.722656 -17.964844 C 17.417969 -17.234375 17.050781 -16.5625 16.867188 -16.257812 L 16.867188 -16.320312 L 16.6875 -15.589844 C 16.625 -15.40625 16.5625 -15.164062 16.441406 -14.917969 L 16.503906 -14.917969 C 14.3125 -10.597656 10.351562 -5.296875 9.316406 -5.296875 C 9.132812 -5.296875 8.953125 -5.542969 8.890625 -5.722656 C 8.832031 -6.394531 9.074219 -7.613281 9.5625 -9.011719 L 9.257812 -11.023438 C 9.621094 -12.363281 10.109375 -13.824219 10.65625 -15.40625 C 10.597656 -15.710938 10.535156 -16.078125 10.535156 -16.382812 C 10.535156 -16.6875 10.535156 -16.992188 10.472656 -17.171875 L 10.351562 -17.84375 L 10.351562 -17.964844 C 10.292969 -18.148438 10.292969 -18.269531 10.292969 -18.453125 L 12.058594 -23.8125 C 12.058594 -23.8125 12.058594 -24.175781 11.996094 -24.480469 C 11.9375 -25.273438 11.875 -26.855469 11.691406 -27.828125 L 13.335938 -33.433594 C 13.335938 -33.796875 13.277344 -34.164062 13.214844 -34.527344 L 13.214844 -34.710938 C 14.128906 -37.453125 14.917969 -39.949219 14.675781 -41.289062 C 14.3125 -43.296875 12.910156 -44.882812 11.8125 -45.492188 C 10.65625 -47.5625 8.464844 -48.597656 7.550781 -48.597656 C 6.089844 -48.597656 5.480469 -43.117188 5.054688 -38.972656 C 4.992188 -38.914062 4.992188 -38.730469 4.992188 -38.609375 L 5.175781 -38.183594 C 4.933594 -37.269531 4.8125 -36.476562 4.8125 -36.417969 C 4.75 -35.015625 4.382812 -33.796875 4.082031 -32.578125 C 3.714844 -31.300781 3.347656 -29.472656 3.347656 -27.953125 C 2.800781 -25.332031 2.253906 -20.035156 2.3125 -19.121094 C 1.707031 -16.441406 1.402344 -13.882812 1.402344 -11.691406 C 1.402344 -8.160156 2.800781 -2.679688 7.003906 -2.3125 C 7.976562 -2.3125 8.890625 -2.800781 10.167969 -3.59375 C 10.230469 -3.59375 10.351562 -3.53125 10.414062 -3.53125 C 11.570312 -3.53125 13.335938 -6.210938 14.554688 -8.097656 C 14.738281 -8.28125 14.980469 -8.648438 14.917969 -8.585938 Z M 14.917969 -8.585938 "/></g></g></g></svg>